<svg width="32" height="33" viewBox="0 0 32 33" fill="none" xmlns="http://www.w3.org/2000/svg">
<path fill-rule="evenodd" clip-rule="evenodd" d="M25.4926 8.72192C26.5067 8.99579 27.3037 9.79487 27.5732 10.8078C28.0634 12.6461 28.0634 16.4839 28.0634 16.4839C28.0634 16.4839 28.0634 20.3218 27.5732 22.1601C27.3 23.1767 26.5029 23.9758 25.4926 24.2459C23.659 24.7374 16.3022 24.7374 16.3022 24.7374C16.3022 24.7374 8.94912 24.7374 7.11179 24.2459C6.0977 23.9721 5.30065 23.173 5.03122 22.1601C4.54102 20.3218 4.54102 16.4839 4.54102 16.4839C4.54102 16.4839 4.54102 12.6461 5.03122 10.8078C5.30439 9.79112 6.10144 8.99204 7.11179 8.72192C8.94912 8.23047 16.3022 8.23047 16.3022 8.23047C16.3022 8.23047 23.659 8.23047 25.4926 8.72192ZM20.0628 16.4839L13.9521 20.0217V12.9462L20.0628 16.4839Z" fill="#8FA0BC"/>
</svg>
