<svg width="32" height="33" viewBox="0 0 32 33" fill="none" xmlns="http://www.w3.org/2000/svg">
<path d="M12.167 16.4026C12.167 14.3572 13.8256 12.6986 15.8723 12.6986C17.9189 12.6986 19.5785 14.3572 19.5785 16.4026C19.5785 18.448 17.9189 20.1066 15.8723 20.1066C13.8256 20.1066 12.167 18.448 12.167 16.4026ZM10.1634 16.4026C10.1634 19.5537 12.7193 22.108 15.8723 22.108C19.0253 22.108 21.5811 19.5537 21.5811 16.4026C21.5811 13.2515 19.0253 10.6972 15.8723 10.6972C12.7193 10.6972 10.1634 13.2515 10.1634 16.4026ZM20.473 10.471C20.4729 10.7347 20.551 10.9925 20.6976 11.2118C20.8441 11.4311 21.0524 11.6021 21.2961 11.7031C21.5398 11.8042 21.8081 11.8307 22.0669 11.7793C22.3257 11.728 22.5635 11.6011 22.7501 11.4147C22.9368 11.2283 23.064 10.9908 23.1155 10.7321C23.1671 10.4735 23.1408 10.2054 23.0399 9.96175C22.939 9.71808 22.7681 9.50977 22.5488 9.36317C22.3295 9.21658 22.0715 9.13828 21.8077 9.13817H21.8071C21.4535 9.13833 21.1143 9.27879 20.8641 9.52869C20.614 9.77859 20.4733 10.1175 20.473 10.471ZM11.3807 25.4468C10.2968 25.3975 9.70762 25.217 9.3161 25.0646C8.79703 24.8626 8.42667 24.6221 8.03728 24.2335C7.6479 23.8448 7.40686 23.4751 7.20568 22.9563C7.05305 22.5652 6.8725 21.9762 6.82322 20.8929C6.76932 19.7217 6.75856 19.3699 6.75856 16.4027C6.75856 13.4355 6.77021 13.0847 6.82322 11.9125C6.87259 10.8292 7.05447 10.2414 7.20568 9.8491C7.40775 9.33035 7.64843 8.96021 8.03728 8.57106C8.42614 8.1819 8.79614 7.94102 9.3161 7.73995C9.70744 7.58741 10.2968 7.40697 11.3807 7.35773C12.5526 7.30386 12.9046 7.2931 15.8723 7.2931C18.8399 7.2931 19.1923 7.30475 20.3652 7.35773C21.4492 7.40706 22.0373 7.58884 22.4298 7.73995C22.9489 7.94102 23.3192 8.18244 23.7086 8.57106C24.098 8.95968 24.3382 9.33035 24.5402 9.8491C24.6929 10.2402 24.8734 10.8292 24.9227 11.9125C24.9766 13.0847 24.9874 13.4355 24.9874 16.4027C24.9874 19.3699 24.9766 19.7207 24.9227 20.8929C24.8733 21.9762 24.6919 22.565 24.5402 22.9563C24.3382 23.4751 24.0975 23.8452 23.7086 24.2335C23.3198 24.6217 22.9489 24.8626 22.4298 25.0646C22.0385 25.2171 21.4492 25.3975 20.3652 25.4468C19.1933 25.5007 18.8413 25.5114 15.8723 25.5114C12.9033 25.5114 12.5523 25.5007 11.3807 25.4468ZM11.2887 5.35879C10.1051 5.41266 9.29635 5.60021 8.59006 5.87488C7.8586 6.15853 7.23938 6.53906 6.62061 7.15648C6.00184 7.7739 5.62206 8.39373 5.33824 9.12475C5.06341 9.83106 4.87574 10.6389 4.82185 11.8217C4.76706 13.0064 4.75452 13.3852 4.75452 16.4026C4.75452 19.42 4.76706 19.7988 4.82185 20.9835C4.87574 22.1664 5.06341 22.9742 5.33824 23.6805C5.62206 24.4111 6.00193 25.0316 6.62061 25.6487C7.2393 26.2659 7.8586 26.6459 8.59006 26.9303C9.29769 27.205 10.1051 27.3926 11.2887 27.4464C12.4747 27.5003 12.8531 27.5137 15.8723 27.5137C18.8915 27.5137 19.2705 27.5012 20.4559 27.4464C21.6396 27.3926 22.4478 27.205 23.1545 26.9303C23.8855 26.6459 24.5052 26.2662 25.124 25.6487C25.7427 25.0313 26.1217 24.4111 26.4063 23.6805C26.6812 22.9742 26.8697 22.1663 26.9227 20.9835C26.9766 19.7979 26.9892 19.42 26.9892 16.4026C26.9892 13.3852 26.9766 13.0064 26.9227 11.8217C26.8688 10.6388 26.6812 9.83061 26.4063 9.12475C26.1217 8.39417 25.7418 7.77488 25.124 7.15648C24.5062 6.53808 23.8855 6.15853 23.1554 5.87488C22.4478 5.60021 21.6395 5.41177 20.4568 5.35879C19.2714 5.30493 18.8924 5.2915 15.8732 5.2915C12.854 5.2915 12.4747 5.30404 11.2887 5.35879Z" fill="#8FA0BC"/>
</svg>
