<svg width="32" height="32" viewBox="0 0 32 32" fill="none" xmlns="http://www.w3.org/2000/svg">
<path fill-rule="evenodd" clip-rule="evenodd" d="M12 9C12 6.79086 13.7909 5 16 5C18.2091 5 20 6.79086 20 9C20 11.2091 18.2091 13 16 13C13.7909 13 12 11.2091 12 9ZM19.7142 13.7125C21.1064 12.6137 22 10.9112 22 9C22 5.68629 19.3137 3 16 3C12.6863 3 10 5.68629 10 9C10 10.9112 10.8936 12.6137 12.2858 13.7125C8.60205 15.187 6 18.7896 6 23V27V29H8H24H26V27V23C26 18.7896 23.3979 15.187 19.7142 13.7125ZM16 15C11.5817 15 8 18.5817 8 23V27H24V23C24 18.5817 20.4183 15 16 15Z" fill="#161D27"/>
</svg>
