<svg width="32" height="32" viewBox="0 0 32 32" fill="none" xmlns="http://www.w3.org/2000/svg">
<path d="M16 3C19.3137 3 22 5.68629 22 9C22 10.9128 21.1031 12.6142 19.709 13.7129C23.395 15.1863 26 18.788 26 23V29H6V23C6 18.7883 8.60444 15.1865 12.29 13.7129C10.8962 12.6142 10 10.9125 10 9C10 5.68629 12.6863 3 16 3ZM16 15C11.5817 15 8 18.5817 8 23V27H24V23C24 18.5817 20.4183 15 16 15ZM16 5C13.7909 5 12 6.79086 12 9C12 11.2091 13.7909 13 16 13C18.2091 13 20 11.2091 20 9C20 6.79086 18.2091 5 16 5Z" fill="white"/>
</svg>
