<svg width="80" height="80" viewBox="0 0 80 80" fill="none" xmlns="http://www.w3.org/2000/svg">
<path d="M68.64 41.6C68.64 41.32 68.52 41.05 68.31 40.86L60.71 34.01V18H19.93V34.08L12.33 40.93C12.12 41.12 12 41.39 12 41.67V79C12 79.55 12.45 80 13 80H67.64C67.91 80 68.16 79.89 68.35 79.71C68.54 79.53 68.64 79.27 68.64 79V41.6ZM34.85 57.97L14 76.73V43.89L34.84 57.97H34.85ZM37.29 58.46C38.95 56.96 41.77 56.96 43.43 58.46L65.14 78H15.58L37.29 58.46ZM45.81 57.91L66.64 43.84V76.65L45.81 57.9V57.91ZM66.25 41.7L60.71 45.44V36.71L66.25 41.7ZM58.71 20V46.79L44.22 56.57C41.94 54.93 38.69 54.95 36.42 56.62L21.92 46.83V20H58.7H58.71ZM19.93 45.48L14.41 41.75L19.93 36.77V45.48Z" fill="#9CA3AF"/>
<path d="M39.51 48.3893C41.19 48.3893 42.28 48.2693 43.92 47.5793C44.43 47.3693 44.67 46.7793 44.45 46.2693C44.24 45.7593 43.65 45.5193 43.14 45.7393C41.79 46.3093 40.96 46.3993 39.5 46.3993C37.4 46.3993 35.51 45.5893 34.16 44.1193C32.8 42.6393 32.16 40.6593 32.34 38.5493C32.73 34.1193 36.64 30.5193 41.07 30.5193C43.47 30.5193 45.42 31.2593 46.69 32.6493C47.9 33.9793 48.45 35.8093 48.26 37.9493C48.1 39.7793 47.4 40.6693 46.84 41.0993C46.36 41.4693 45.86 41.5793 45.56 41.5293C44.76 41.3893 44.36 40.5993 44.46 39.3793L44.89 34.4893C44.94 33.9393 44.53 33.4493 43.98 33.4093C43.43 33.3693 42.94 33.7693 42.9 34.3193V34.4293C42.12 33.7793 41.17 33.4093 40.15 33.4093C37.63 33.4093 35.46 35.5993 35.22 38.3893C35.09 39.8593 35.52 41.2493 36.41 42.2193C37.19 43.0693 38.26 43.5393 39.44 43.5393C40.88 43.5393 42.13 42.9693 43.04 41.9993C43.58 42.8793 44.42 43.3693 45.22 43.5093C46.13 43.6693 47.19 43.3693 48.06 42.6993C48.94 42.0293 50.03 40.6893 50.25 38.1393C50.49 35.4593 49.75 33.0393 48.17 31.3093C46.5 29.4893 44.05 28.5293 41.07 28.5293C35.63 28.5293 30.82 32.9493 30.35 38.3793C30.12 41.0593 30.94 43.5793 32.68 45.4793C34.41 47.3693 36.83 48.4093 39.49 48.4093L39.51 48.3893ZM39.46 41.5093C38.85 41.5093 38.31 41.2793 37.91 40.8393C37.4 40.2793 37.16 39.4393 37.24 38.5293C37.4 36.7593 38.69 35.3793 40.18 35.3793C40.83 35.3793 41.43 35.6393 41.86 36.1193C42.38 36.6793 42.63 37.4993 42.55 38.3493C42.36 40.5293 40.86 41.4993 39.46 41.4993V41.5093Z" fill="#9CA3AF"/>
</svg>
