<svg width="121" height="120" viewBox="0 0 121 120" fill="none" xmlns="http://www.w3.org/2000/svg">
<g clip-path="url(#clip0_2009_3772)">
<path d="M61.2041 8.05798L61.6903 0L67.1926 0.332552L67.1158 1.58602L63.0211 1.33021L62.8932 3.42784L66.9111 3.68365L66.8343 4.93711L62.8164 4.6813L62.6117 8.16031L61.2041 8.08356V8.05798Z" fill="#172C56"/>
<path d="M73.3341 1.30474C75.6885 1.81636 76.9681 3.91399 76.4563 6.24186C75.9444 8.5953 73.8971 9.95109 71.5427 9.43947C69.1882 8.92785 67.9086 6.83022 68.4205 4.50235C68.9323 2.14891 70.9796 0.793125 73.3341 1.30474ZM73.0526 2.53263C71.4659 2.17449 70.1863 3.17215 69.828 4.80933C69.4697 6.42092 70.2119 7.87903 71.8242 8.21159C73.4109 8.54414 74.6904 7.54648 75.0487 5.93489C75.407 4.29771 74.6393 2.86518 73.0526 2.53263Z" fill="#172C56"/>
<path d="M81.1654 12.3554L80.6024 8.902L79.2972 8.39038L78.1968 11.1787L76.8916 10.6671L79.8603 3.17188L83.1616 4.4765C84.6459 5.06486 85.2345 6.42065 84.6715 7.80202C84.1341 9.13222 82.9825 9.51594 82.01 9.31129L82.6754 12.9949L81.1654 12.4066V12.3554ZM82.4962 5.5509L80.7048 4.83463L79.7579 7.21366L81.5493 7.92992C82.2915 8.21131 83.008 7.9555 83.3151 7.23924C83.6222 6.52297 83.2384 5.83229 82.4962 5.5509Z" fill="#172C56"/>
<path d="M88.2795 16.1412L91.9903 10.4366L89.943 9.10643L90.6339 8.05762L95.9059 11.4855L95.2149 12.5343L93.1675 11.2041L89.4311 16.9086L88.2539 16.1412H88.2795Z" fill="#172C56"/>
<path d="M96.5463 22.6135L98.9007 19.9787L95.7785 17.1904L93.4497 19.8252L92.4004 18.8787L97.7747 12.8672L98.8239 13.8137L96.623 16.2694L99.7452 19.0578L101.946 16.602L102.995 17.5485L97.6211 23.56L96.5719 22.6135H96.5463Z" fill="#172C56"/>
<path d="M98.7207 24.7875L104.914 19.6201L108.446 23.8665L107.499 24.6596L104.863 21.5131L103.25 22.8433L105.835 25.9386L104.888 26.7316L102.304 23.6363L100.589 25.0688L103.225 28.2153L102.252 29.0083L98.7207 24.7619V24.7875Z" fill="#172C56"/>
<path d="M104.889 32.8975L112.003 29.0859L113.871 32.5905C114.562 33.8951 114.153 35.0463 113.155 35.5835C112.259 36.0695 111.363 35.8137 110.852 35.2254C111.133 36.0439 110.724 37.0672 109.828 37.5276C108.727 38.116 107.525 37.809 106.808 36.4788L104.889 32.8975ZM106.629 33.5626L107.729 35.6091C108.088 36.2998 108.676 36.5044 109.316 36.1718C109.853 35.8905 110.084 35.2765 109.726 34.5603L108.625 32.5138L106.655 33.5626H106.629ZM109.7 31.9254L110.775 33.9207C111.107 34.5603 111.696 34.7137 112.234 34.4323C112.771 34.151 112.976 33.5626 112.617 32.9231L111.543 30.9278L109.7 31.9254Z" fill="#172C56"/>
<path d="M108.395 39.8299L115.97 37.0928L117.838 42.2857L116.661 42.7206L115.279 38.8579L113.308 39.5741L114.665 43.3601L113.488 43.795L112.131 40.009L110.033 40.7764L111.415 44.6391L110.237 45.0484L108.369 39.8555L108.395 39.8299Z" fill="#172C56"/>
<path d="M112.899 46.1738C112.438 46.8389 112.106 47.7854 112.362 48.8854C112.592 50.0109 113.257 50.3435 113.769 50.2412C114.486 50.0877 114.511 49.2179 114.563 48.1947C114.614 46.8389 114.665 45.2529 116.328 44.8948C117.634 44.6134 118.888 45.5343 119.246 47.2738C119.502 48.5017 119.323 49.5761 118.785 50.4458L117.582 49.883C118.069 49.1412 118.171 48.2459 117.992 47.4273C117.813 46.6087 117.327 46.1738 116.738 46.3017C116.124 46.4296 116.098 47.2738 116.073 48.2714C116.021 49.6272 115.945 51.2644 114.256 51.6481C112.95 51.9295 111.62 51.2388 111.159 49.1412C110.852 47.6831 111.133 46.5319 111.722 45.6878L112.95 46.225L112.899 46.1738Z" fill="#172C56"/>
<path d="M112.183 55.2035L118.964 54.6663L118.785 52.2361L120.014 52.1338L120.5 58.4011L119.272 58.5034L119.092 56.0732L112.311 56.6104L112.208 55.2035H112.183Z" fill="#172C56"/>
<path d="M112.618 70.2198L111.773 70.7825L111.082 69.7081L111.952 69.1198C111.722 68.5058 111.645 67.7896 111.747 67.0477C112.08 64.6687 114.051 63.2106 116.431 63.5431C118.811 63.8757 120.321 65.7943 119.988 68.1733C119.655 70.5523 117.685 72.0104 115.305 71.6779C114.153 71.5244 113.206 70.9872 112.592 70.2198H112.618ZM113.078 68.3779L114.332 67.5338L114.998 68.6082L113.744 69.4523C114.179 69.8616 114.793 70.143 115.509 70.2453C117.147 70.4756 118.529 69.6058 118.76 67.9942C118.99 66.3826 117.889 65.1803 116.252 64.9501C114.614 64.7199 113.232 65.5896 113.001 67.2012C112.95 67.6105 113.001 68.0198 113.078 68.3779Z" fill="#172C56"/>
<path d="M118.709 74.8243L118.274 76.1801L113.667 74.722C112.439 74.3383 111.441 74.7475 111.031 76.0522C110.622 77.3312 111.21 78.2521 112.413 78.6614L117.02 80.1195L116.584 81.4753L111.952 79.9916C110.033 79.3777 109.112 77.894 109.828 75.6685C110.545 73.4429 112.157 72.7522 114.051 73.3406L118.709 74.8243Z" fill="#172C56"/>
<path d="M105.862 85.3377L107.5 85.4912L109.214 82.0634L108.088 80.8355L108.779 79.4541L114.589 85.8749L113.795 87.4609L105.171 86.6935L105.862 85.3121V85.3377ZM113.104 86.1563L110.136 82.9843L108.779 85.6958L113.104 86.1563Z" fill="#172C56"/>
<path d="M104.634 87.3584L111.262 91.9118L110.469 93.0885L104.838 89.2258L102.817 92.142L101.793 91.4513L104.608 87.3584H104.634Z" fill="#172C56"/>
<path d="M100.948 92.501L107.142 97.6172L106.246 98.6916L100.053 93.5754L100.948 92.501Z" fill="#172C56"/>
<path d="M97.5696 96.2607L102.381 101.07L104.095 99.356L104.966 100.226L100.513 104.651L99.6425 103.782L101.357 102.068L96.5459 97.2584L97.544 96.2607H97.5696Z" fill="#172C56"/>
<path d="M92.1182 101.121L94.1144 103.807L99.4375 105.7L98.1323 106.672L94.2935 105.24L94.6006 109.333L93.2954 110.305L92.9883 104.677L90.9922 101.991L92.1182 101.147V101.121Z" fill="#172C56"/>
<path d="M82.6241 109.41C81.8819 109.052 80.8839 108.898 79.8346 109.307C78.7597 109.742 78.5294 110.433 78.7341 110.919C78.9901 111.584 79.8858 111.482 80.8839 111.354C82.2402 111.175 83.8013 110.97 84.4411 112.556C84.9274 113.784 84.2108 115.165 82.5729 115.831C81.3957 116.291 80.3208 116.291 79.3484 115.882L79.7066 114.603C80.5256 114.961 81.4213 114.91 82.2146 114.603C82.9824 114.296 83.3407 113.733 83.1103 113.17C82.88 112.582 82.0355 112.684 81.063 112.812C79.7066 112.991 78.0688 113.17 77.429 111.559C76.9427 110.305 77.4034 108.898 79.4251 108.105C80.8071 107.568 82.0099 107.645 82.9312 108.105L82.5985 109.41H82.6241Z" fill="#172C56"/>
<path d="M75.6892 111.967C74.9982 111.532 74.0513 111.225 72.9509 111.481C71.8249 111.763 71.5178 112.428 71.6457 112.939C71.8249 113.656 72.695 113.656 73.7187 113.681C75.075 113.681 76.6617 113.681 77.0712 115.344C77.3783 116.623 76.4826 117.902 74.7679 118.337C73.5395 118.644 72.4647 118.49 71.5689 117.953L72.1064 116.751C72.8741 117.211 73.7698 117.288 74.5888 117.083C75.4077 116.879 75.8172 116.367 75.6892 115.779C75.5357 115.165 74.6911 115.165 73.7187 115.139C72.3367 115.139 70.6988 115.088 70.2894 113.4C69.9822 112.095 70.622 110.765 72.7462 110.253C74.2049 109.895 75.3565 110.151 76.2267 110.739L75.7148 111.993L75.6892 111.967Z" fill="#172C56"/>
<path d="M62.8931 111.865L63.6353 113.349L67.4485 112.99L67.8835 111.404L69.419 111.251L67.0134 119.565L65.2476 119.718L61.332 111.993L62.8675 111.839L62.8931 111.865ZM66.0409 118.465L67.167 114.27L64.1727 114.551L66.0665 118.465H66.0409Z" fill="#172C56"/>
<path d="M54.96 111.609L58.7732 117.749L59.1571 111.891L60.5646 111.993L60.0528 120.025L58.594 119.923L54.8576 113.963L54.4993 119.667L53.0918 119.565L53.6036 111.507L54.96 111.584V111.609Z" fill="#172C56"/>
<path d="M46.3862 118.363C44.8507 118.005 44.0317 117.058 43.5967 115.984L44.8763 115.6C45.1578 116.291 45.7976 116.905 46.6677 117.11C48.2288 117.468 49.6363 116.547 50.0202 114.91C50.4041 113.272 49.534 111.789 47.9729 111.431C47.1795 111.252 46.3862 111.456 45.9511 111.712L45.6696 112.94L47.9985 113.477L47.717 114.679L44.0061 113.81L44.6971 110.868C45.6696 110.203 46.898 109.87 48.2544 110.203C50.5321 110.74 51.9908 112.761 51.4278 115.217C50.8648 117.672 48.6383 118.849 46.3606 118.312L46.3862 118.363Z" fill="#172C56"/>
<path d="M41.6771 108.335L40.4231 111.43L41.5491 116.981L40.0392 116.367L39.2714 112.326L35.9445 114.705L34.4346 114.091L39.0923 110.893L40.3463 107.798L41.6515 108.335H41.6771Z" fill="#172C56"/>
<path d="M29.8031 111.635C27.7301 110.407 27.1671 108.003 28.3955 105.956C29.6239 103.91 31.9784 103.245 34.0769 104.473C36.1499 105.7 36.7129 108.079 35.4845 110.151C34.2561 112.224 31.9016 112.863 29.8031 111.635ZM30.4429 110.535C31.8504 111.379 33.3603 110.817 34.2305 109.384C35.075 107.952 34.8191 106.34 33.4115 105.521C32.0296 104.703 30.4685 105.24 29.6239 106.672C28.7794 108.105 29.0353 109.717 30.4429 110.535Z" fill="#172C56"/>
<path d="M24.1725 107.798L23.0976 106.877L26.2454 103.219C27.09 102.247 27.09 101.147 26.0407 100.277C25.017 99.4077 23.9422 99.5868 23.0976 100.559L19.9499 104.217L18.875 103.296L22.0484 99.6124C23.3536 98.0775 25.0938 97.8217 26.8596 99.331C28.6511 100.84 28.6511 102.605 27.3459 104.115L24.1725 107.824V107.798Z" fill="#172C56"/>
<path d="M19.3874 91.708L17.5959 98.6916L22.1001 94.9056L23.0214 95.98L16.8538 101.173L15.9325 100.073L17.6471 93.2429L13.2709 96.9265L12.3496 95.8521L18.5172 90.6592L19.3874 91.708Z" fill="#172C56"/>
<path d="M8.56134 90.1474C7.76799 88.7916 7.89595 87.5381 8.35661 86.5149L9.50824 87.18C9.20114 87.8451 9.17554 88.7404 9.6362 89.5335C10.4551 90.9148 12.093 91.2985 13.5517 90.4544C15.0105 89.6102 15.4711 87.9474 14.6522 86.5916C14.2427 85.8754 13.5262 85.4661 13.0655 85.3126L11.9906 85.9521L13.2191 88.0242L12.1442 88.6637L10.1992 85.3894L12.784 83.8545C13.9356 84.0847 15.0105 84.7754 15.727 85.9777C16.9043 87.973 16.4436 90.4544 14.2683 91.7334C12.093 93.0125 9.71297 92.2195 8.53575 90.2241L8.56134 90.1474Z" fill="#172C56"/>
<path d="M7.76879 77.2803L6.71953 77.5873L5.875 74.8246L6.92426 74.5176L7.76879 77.2803Z" fill="#172C56"/>
<path d="M0.730443 66.2031C0.551301 64.6427 1.1911 63.5427 2.03563 62.8008L2.80338 63.8752C2.24036 64.3613 1.85648 65.1799 1.95885 66.0752C2.13799 67.6612 3.46877 68.6845 5.15783 68.5054C6.84689 68.3263 7.92174 67.0217 7.7426 65.4357C7.64023 64.6171 7.17958 63.952 6.82129 63.6194L5.5673 63.7473L5.82321 66.1264L4.59481 66.2543L4.18534 62.4683L7.17958 62.1357C8.15207 62.8264 8.84305 63.8752 8.9966 65.2822C9.25252 67.5845 7.81938 69.6565 5.31138 69.9379C2.80338 70.2193 0.96077 68.5054 0.704852 66.2031H0.730443Z" fill="#172C56"/>
<path d="M8.56142 60.5752L0.5 60.3194L0.551184 58.9124L7.35861 59.1427L7.46097 55.5869L8.71497 55.6381L8.56142 60.6008V60.5752Z" fill="#172C56"/>
<path d="M1.29316 49.6266C1.70263 47.2476 3.74997 45.8662 6.10442 46.2755C8.48446 46.6848 9.9176 48.6801 9.50813 51.0591C9.09866 53.4381 7.05132 54.8195 4.69687 54.4102C2.31683 54.0009 0.88369 52.0056 1.29316 49.6266ZM2.52157 49.8568C2.24006 51.4684 3.28932 52.6963 4.9272 52.9777C6.56507 53.2591 7.97262 52.4405 8.25413 50.8545C8.53564 49.2685 7.48638 48.015 5.8485 47.7336C4.21063 47.4522 2.80308 48.2708 2.52157 49.8568Z" fill="#172C56"/>
<path d="M10.4807 45.7644L2.87988 43.104L4.18507 39.3692C4.67131 37.9878 5.79735 37.5018 6.87221 37.8855C7.84469 38.218 8.25416 39.0622 8.1518 39.804C8.56126 39.0366 9.61053 38.6529 10.5318 38.9855C11.7091 39.3948 12.3233 40.4947 11.8114 41.9017L10.4551 45.7388L10.4807 45.7644ZM6.48833 42.8738L7.23049 40.7505C7.46082 40.0599 7.2049 39.5227 6.61629 39.3436C6.05327 39.1389 5.49025 39.3948 5.25992 40.0599L4.51776 42.1831L6.48833 42.8738ZM9.76408 44.0249L10.5318 41.8249C10.7878 41.0831 10.5318 40.5203 9.86645 40.2901C9.30343 40.0854 8.68922 40.3157 8.40771 41.0831L7.63996 43.283L9.73849 44.0249H9.76408Z" fill="#172C56"/>
<path d="M15.8547 33.3829L14.2169 33.1783L12.4254 36.555L13.5003 37.8084L12.7581 39.1642L7.12793 32.5643L7.97246 31.0039L16.5713 32.0016L15.8291 33.3573L15.8547 33.3829ZM8.61226 32.3597L11.4785 35.6085L12.9117 32.9481L8.61226 32.3597Z" fill="#172C56"/>
<path d="M17.1097 31.3873L10.6094 26.6804L11.4283 25.5293L16.9306 29.5199L19.0035 26.6549L20.0016 27.3711L17.1097 31.3873Z" fill="#172C56"/>
<path d="M21.639 22.2298C22.4579 22.281 23.4304 22.0508 24.2493 21.2833C25.0938 20.4903 25.0427 19.7741 24.6844 19.3648C24.1981 18.8276 23.4048 19.2624 22.5347 19.7485C21.3574 20.4136 19.9755 21.181 18.7983 19.9531C17.877 18.981 18.0305 17.4462 19.3101 16.2183C20.2314 15.3486 21.2295 14.9648 22.2787 14.9648L22.4067 16.2951C21.511 16.2695 20.6921 16.6532 20.0779 17.216C19.4636 17.7787 19.3613 18.4438 19.7707 18.8787C20.2058 19.3392 20.948 18.9299 21.7925 18.4438C22.9953 17.7787 24.4285 16.9857 25.6313 18.2648C26.5526 19.2369 26.6549 20.7205 25.0683 22.2042C23.9934 23.2275 22.8418 23.5856 21.8181 23.5089L21.639 22.1787V22.2298Z" fill="#172C56"/>
<path d="M32.797 16.0135L31.4406 15.0926L28.3184 17.267L28.7279 18.8786L27.4739 19.7739L25.4521 11.3834L26.8853 10.3857L34.0766 15.1694L32.8226 16.0647L32.797 16.0135ZM26.8341 11.8439L27.9346 16.0391L30.3914 14.2996L26.8341 11.8439Z" fill="#172C56"/>
<path d="M34.8702 14.7858L31.2617 7.59756L36.1753 5.11621L36.7384 6.21619L33.0787 8.05801L34.0256 9.92542L37.6085 8.10918L38.1715 9.20915L34.5887 11.0254L35.5867 13.0207L39.2464 11.1789L39.8094 12.2789L34.8958 14.7602L34.8702 14.7858Z" fill="#172C56"/>
<path d="M41.1909 10.1298C41.626 9.97629 42.1122 10.1809 42.2914 10.6158C42.4449 11.0507 42.2402 11.5367 41.8051 11.7158C41.3701 11.8949 40.8838 11.6646 40.7047 11.2298C40.5255 10.7949 40.7559 10.3088 41.1909 10.1298Z" fill="#172C56"/>
<path d="M49.4823 9.20891L48.5098 7.8787L44.8246 8.87635L44.6455 10.5135L43.1611 10.9228L44.1336 2.32764L45.8483 1.86719L50.9922 8.82519L49.5079 9.23449L49.4823 9.20891ZM45.2853 3.22298L44.8758 7.54615L47.7932 6.75314L45.2853 3.22298Z" fill="#172C56"/>
<path fill-rule="evenodd" clip-rule="evenodd" d="M79.5384 60.161C79.5384 60.161 78.4293 59.0073 76.4225 57.4244C74.7853 56.1098 72.3296 54.4732 69.5834 52.783C69.5834 52.783 67.1277 51.2 67.2861 49.5903C67.4446 48.061 68.8969 47.5781 71.1678 47.7659C71.1678 47.7659 76.3697 47.7659 84.3442 53.2927V37.7318C84.3442 37.7318 73.2802 33.0904 62.4803 35.9074C62.4803 35.9074 52.7103 37.8391 52.1557 46.3976C52.1557 46.3976 51.4956 50.1269 54.5586 54.1244C55.8525 55.8147 56.9351 56.9146 60.6055 59.222C60.6055 59.222 64.3023 61.6366 65.3321 62.6829C65.3321 62.6829 69.9795 66.0902 70.2436 71.8316C70.27 72.717 70.2964 73.7365 70.0851 74.7292C69.8475 75.9633 69.3458 77.5462 68.3688 79.0219C68.3688 79.0219 67.2069 81.3023 64.0911 83.0999C64.0911 83.0999 78.8518 86.7486 83.5784 76.2048C83.5784 76.2048 87.3808 68.3975 79.5384 60.161Z" fill="#172C56"/>
<path fill-rule="evenodd" clip-rule="evenodd" d="M41.488 59.8122C41.488 59.8122 42.5971 60.9658 44.6039 62.5488C46.2411 63.8634 48.6704 65.5 51.4166 67.1902C51.4166 67.1902 53.8723 68.8 53.7138 70.4097C53.5554 71.939 52.1031 72.4219 49.8322 72.2341C49.8322 72.2341 44.6303 72.2341 36.6558 66.7073V82.2682C36.6558 82.2682 47.7198 86.9096 58.5197 84.0926C58.5197 84.0926 68.2897 82.1609 68.8443 73.5755C68.8443 73.5755 69.5044 69.8463 66.4414 65.8487C65.1475 64.1585 64.0648 63.0585 60.3945 60.7512C60.3945 60.7512 56.6977 58.3366 55.6679 57.2903C55.6679 57.2903 51.0205 53.9098 50.7564 48.1415C50.73 47.2562 50.7036 46.2367 50.9148 45.244C51.1525 44.0367 51.6278 42.4269 52.6312 40.9513C52.6312 40.9513 53.7931 38.6708 56.9089 36.8733C56.9089 36.8733 42.1482 33.2514 37.4216 43.7684C37.4216 43.7684 33.6192 51.5757 41.4616 59.8122H41.488Z" fill="#172C56"/>
</g>
<defs>
<clipPath id="clip0_2009_3772">
<rect width="120" height="120" fill="white" transform="translate(0.5)"/>
</clipPath>
</defs>
</svg>
