<svg width="120" height="120" viewBox="0 0 120 120" fill="none" xmlns="http://www.w3.org/2000/svg">
<g clip-path="url(#clip0_2009_3920)">
<path d="M60.7041 8.05798L61.1903 0L66.6926 0.332552L66.6158 1.58602L62.5211 1.33021L62.3932 3.42784L66.4111 3.68365L66.3343 4.93711L62.3164 4.6813L62.1117 8.16031L60.7041 8.08356V8.05798Z" fill="#E5E7EB"/>
<path d="M72.8341 1.30474C75.1885 1.81636 76.4681 3.91399 75.9563 6.24186C75.4444 8.5953 73.3971 9.95109 71.0427 9.43947C68.6882 8.92785 67.4086 6.83022 67.9205 4.50235C68.4323 2.14891 70.4796 0.793125 72.8341 1.30474ZM72.5526 2.53263C70.9659 2.17449 69.6863 3.17215 69.328 4.80933C68.9697 6.42092 69.7119 7.87903 71.3242 8.21159C72.9109 8.54414 74.1904 7.54648 74.5487 5.93489C74.907 4.29771 74.1393 2.86518 72.5526 2.53263Z" fill="#E5E7EB"/>
<path d="M80.6654 12.3554L80.1024 8.902L78.7972 8.39038L77.6968 11.1787L76.3916 10.6671L79.3603 3.17188L82.6616 4.4765C84.1459 5.06486 84.7345 6.42065 84.1715 7.80202C83.6341 9.13222 82.4825 9.51594 81.51 9.31129L82.1754 12.9949L80.6654 12.4066V12.3554ZM81.9962 5.5509L80.2048 4.83463L79.2579 7.21366L81.0493 7.92992C81.7915 8.21131 82.508 7.9555 82.8151 7.23924C83.1222 6.52297 82.7384 5.83229 81.9962 5.5509Z" fill="#E5E7EB"/>
<path d="M87.7795 16.1417L91.4903 10.4371L89.443 9.10692L90.1339 8.05811L95.4059 11.4859L94.7149 12.5348L92.6675 11.2046L88.9311 16.9091L87.7539 16.1417H87.7795Z" fill="#E5E7EB"/>
<path d="M96.0463 22.6135L98.4007 19.9787L95.2785 17.1904L92.9497 19.8252L91.9004 18.8787L97.2747 12.8672L98.3239 13.8137L96.123 16.2694L99.2452 19.0578L101.446 16.602L102.495 17.5485L97.1211 23.56L96.0719 22.6135H96.0463Z" fill="#E5E7EB"/>
<path d="M98.2217 24.7879L104.415 19.6206L107.947 23.867L107 24.66L104.364 21.5136L102.751 22.8438L105.336 25.9391L104.389 26.7321L101.805 23.6368L100.09 25.0693L102.726 28.2158L101.753 29.0088L98.2217 24.7624V24.7879Z" fill="#E5E7EB"/>
<path d="M104.389 32.897L111.503 29.0854L113.371 32.59C114.062 33.8947 113.653 35.0458 112.655 35.583C111.759 36.069 110.863 35.8132 110.352 35.2249C110.633 36.0435 110.224 37.0667 109.328 37.5271C108.227 38.1155 107.025 37.8085 106.308 36.4783L104.389 32.897ZM106.129 33.5621L107.229 35.6086C107.588 36.2993 108.176 36.5039 108.816 36.1714C109.353 35.89 109.584 35.276 109.226 34.5598L108.125 32.5133L106.155 33.5621H106.129ZM109.2 31.9249L110.275 33.9202C110.607 34.5598 111.196 34.7132 111.734 34.4319C112.271 34.1505 112.476 33.5621 112.117 32.9226L111.043 30.9273L109.2 31.9249Z" fill="#E5E7EB"/>
<path d="M107.895 39.8294L115.47 37.0923L117.338 42.2852L116.161 42.7201L114.779 38.8574L112.808 39.5736L114.165 43.3596L112.988 43.7945L111.631 40.0085L109.533 40.7759L110.915 44.6387L109.737 45.0479L107.869 39.855L107.895 39.8294Z" fill="#E5E7EB"/>
<path d="M112.399 46.1733C111.938 46.8384 111.606 47.7849 111.862 48.8849C112.092 50.0104 112.757 50.343 113.269 50.2407C113.986 50.0872 114.011 49.2174 114.063 48.1942C114.114 46.8384 114.165 45.2524 115.828 44.8943C117.134 44.6129 118.388 45.5338 118.746 47.2733C119.002 48.5012 118.823 49.5756 118.285 50.4453L117.082 49.8825C117.569 49.1407 117.671 48.2454 117.492 47.4268C117.313 46.6082 116.827 46.1733 116.238 46.3012C115.624 46.4291 115.598 47.2733 115.573 48.2709C115.521 49.6267 115.445 51.2639 113.756 51.6476C112.45 51.929 111.12 51.2383 110.659 49.1407C110.352 47.6826 110.633 46.5314 111.222 45.6873L112.45 46.2245L112.399 46.1733Z" fill="#E5E7EB"/>
<path d="M111.683 55.2035L118.464 54.6663L118.285 52.2361L119.514 52.1338L120 58.4011L118.772 58.5034L118.592 56.0732L111.811 56.6104L111.708 55.2035H111.683Z" fill="#E5E7EB"/>
<path d="M112.118 70.2198L111.273 70.7825L110.582 69.7081L111.452 69.1198C111.222 68.5058 111.145 67.7896 111.247 67.0477C111.58 64.6687 113.551 63.2106 115.931 63.5431C118.311 63.8757 119.821 65.7943 119.488 68.1733C119.155 70.5523 117.185 72.0104 114.805 71.6779C113.653 71.5244 112.706 70.9872 112.092 70.2198H112.118ZM112.578 68.3779L113.832 67.5338L114.498 68.6082L113.244 69.4523C113.679 69.8616 114.293 70.143 115.009 70.2453C116.647 70.4756 118.029 69.6058 118.26 67.9942C118.49 66.3826 117.389 65.1803 115.752 64.9501C114.114 64.7199 112.732 65.5896 112.501 67.2012C112.45 67.6105 112.501 68.0198 112.578 68.3779Z" fill="#E5E7EB"/>
<path d="M118.209 74.8243L117.774 76.1801L113.167 74.722C111.939 74.3383 110.941 74.7475 110.531 76.0522C110.122 77.3312 110.71 78.2521 111.913 78.6614L116.52 80.1195L116.084 81.4753L111.452 79.9916C109.533 79.3777 108.612 77.894 109.328 75.6685C110.045 73.4429 111.657 72.7522 113.551 73.3406L118.209 74.8243Z" fill="#E5E7EB"/>
<path d="M105.362 85.3377L107 85.4912L108.714 82.0634L107.588 80.8355L108.279 79.4541L114.089 85.8749L113.295 87.4609L104.671 86.6935L105.362 85.3121V85.3377ZM112.604 86.1563L109.636 82.9843L108.279 85.6958L112.604 86.1563Z" fill="#E5E7EB"/>
<path d="M104.133 87.3589L110.761 91.9123L109.968 93.089L104.337 89.2263L102.316 92.1425L101.292 91.4518L104.107 87.3589H104.133Z" fill="#E5E7EB"/>
<path d="M100.447 92.5005L106.641 97.6167L105.745 98.6911L99.5518 93.5749L100.447 92.5005Z" fill="#E5E7EB"/>
<path d="M97.0696 96.2607L101.881 101.07L103.595 99.356L104.466 100.226L100.013 104.651L99.1425 103.782L100.857 102.068L96.0459 97.2584L97.044 96.2607H97.0696Z" fill="#E5E7EB"/>
<path d="M91.6182 101.121L93.6144 103.807L98.9375 105.7L97.6323 106.672L93.7935 105.24L94.1006 109.333L92.7954 110.305L92.4883 104.677L90.4922 101.991L91.6182 101.147V101.121Z" fill="#E5E7EB"/>
<path d="M82.1241 109.409C81.3819 109.051 80.3839 108.898 79.3346 109.307C78.2597 109.742 78.0294 110.433 78.2341 110.919C78.4901 111.584 79.3858 111.481 80.3839 111.353C81.7402 111.174 83.3013 110.97 83.9411 112.556C84.4274 113.784 83.7108 115.165 82.0729 115.83C80.8957 116.291 79.8208 116.291 78.8484 115.881L79.2066 114.602C80.0256 114.96 80.9213 114.909 81.7146 114.602C82.4824 114.295 82.8407 113.732 82.6103 113.17C82.38 112.581 81.5355 112.684 80.563 112.812C79.2066 112.991 77.5688 113.17 76.929 111.558C76.4427 110.305 76.9034 108.898 78.9251 108.105C80.3071 107.567 81.5099 107.644 82.4312 108.105L82.0985 109.409H82.1241Z" fill="#E5E7EB"/>
<path d="M75.1892 111.968C74.4982 111.533 73.5513 111.226 72.4509 111.482C71.3249 111.763 71.0178 112.428 71.1457 112.94C71.3249 113.656 72.195 113.656 73.2187 113.682C74.575 113.682 76.1617 113.682 76.5712 115.344C76.8783 116.623 75.9826 117.903 74.2679 118.337C73.0395 118.644 71.9647 118.491 71.0689 117.954L71.6064 116.751C72.3741 117.212 73.2698 117.289 74.0888 117.084C74.9077 116.879 75.3172 116.368 75.1892 115.779C75.0357 115.165 74.1911 115.165 73.2187 115.14C71.8367 115.14 70.1988 115.089 69.7894 113.4C69.4822 112.096 70.122 110.765 72.2462 110.254C73.7049 109.896 74.8565 110.152 75.7267 110.74L75.2148 111.993L75.1892 111.968Z" fill="#E5E7EB"/>
<path d="M62.3931 111.865L63.1353 113.349L66.9485 112.991L67.3835 111.405L68.919 111.251L66.5134 119.565L64.7476 119.719L60.832 111.993L62.3675 111.84L62.3931 111.865ZM65.5409 118.465L66.667 114.27L63.6727 114.551L65.5665 118.465H65.5409Z" fill="#E5E7EB"/>
<path d="M54.459 111.61L58.2722 117.749L58.6561 111.891L60.0636 111.993L59.5518 120.026L58.0931 119.923L54.3567 113.963L53.9984 119.668L52.5908 119.565L53.1027 111.507L54.459 111.584V111.61Z" fill="#E5E7EB"/>
<path d="M45.8862 118.363C44.3507 118.005 43.5317 117.058 43.0967 115.984L44.3763 115.6C44.6578 116.291 45.2976 116.905 46.1677 117.11C47.7288 117.468 49.1363 116.547 49.5202 114.91C49.9041 113.272 49.034 111.789 47.4729 111.431C46.6795 111.252 45.8862 111.456 45.4511 111.712L45.1696 112.94L47.4985 113.477L47.217 114.679L43.5061 113.81L44.1971 110.868C45.1696 110.203 46.398 109.87 47.7544 110.203C50.0321 110.74 51.4908 112.761 50.9278 115.217C50.3648 117.672 48.1383 118.849 45.8606 118.312L45.8862 118.363Z" fill="#E5E7EB"/>
<path d="M41.1771 108.335L39.9231 111.43L41.0491 116.981L39.5392 116.367L38.7714 112.326L35.4445 114.705L33.9346 114.091L38.5923 110.893L39.8463 107.798L41.1515 108.335H41.1771Z" fill="#E5E7EB"/>
<path d="M29.3031 111.635C27.2301 110.407 26.6671 108.003 27.8955 105.956C29.1239 103.91 31.4784 103.245 33.5769 104.473C35.6499 105.7 36.2129 108.079 34.9845 110.151C33.7561 112.224 31.4016 112.863 29.3031 111.635ZM29.9429 110.535C31.3504 111.379 32.8603 110.817 33.7305 109.384C34.575 107.952 34.3191 106.34 32.9115 105.521C31.5296 104.703 29.9685 105.24 29.1239 106.672C28.2794 108.105 28.5353 109.717 29.9429 110.535Z" fill="#E5E7EB"/>
<path d="M23.6725 107.798L22.5976 106.877L25.7454 103.219C26.59 102.247 26.59 101.147 25.5407 100.277C24.517 99.4072 23.4422 99.5863 22.5976 100.558L19.4499 104.216L18.375 103.296L21.5484 99.6119C22.8536 98.077 24.5938 97.8212 26.3596 99.3305C28.1511 100.84 28.1511 102.605 26.8459 104.114L23.6725 107.823V107.798Z" fill="#E5E7EB"/>
<path d="M18.8864 91.7075L17.095 98.6911L21.5991 94.9051L22.5204 95.9795L16.3528 101.172L15.4315 100.072L17.1461 93.2424L12.7699 96.926L11.8486 95.8516L18.0163 90.6587L18.8864 91.7075Z" fill="#E5E7EB"/>
<path d="M8.06134 90.1469C7.26799 88.7911 7.39595 87.5377 7.85661 86.5144L9.00824 87.1795C8.70114 87.8446 8.67554 88.74 9.1362 89.533C9.95513 90.9143 11.593 91.2981 13.0517 90.4539C14.5105 89.6097 14.9711 87.9469 14.1522 86.5912C13.7427 85.8749 13.0262 85.4656 12.5655 85.3121L11.4906 85.9516L12.7191 88.0237L11.6442 88.6632L9.69922 85.3889L12.284 83.854C13.4356 84.0842 14.5105 84.7749 15.227 85.9772C16.4043 87.9725 15.9436 90.4539 13.7683 91.7329C11.593 93.012 9.21297 92.219 8.03575 90.2237L8.06134 90.1469Z" fill="#E5E7EB"/>
<path d="M7.26782 77.2798L6.21855 77.5868L5.37402 74.8241L6.42329 74.5171L7.26782 77.2798Z" fill="#E5E7EB"/>
<path d="M0.230443 66.2036C0.0513008 64.6432 0.691096 63.5432 1.53563 62.8013L2.30338 63.8757C1.74036 64.3618 1.35648 65.1804 1.45885 66.0757C1.63799 67.6617 2.96877 68.6849 4.65783 68.5059C6.34689 68.3268 7.42174 67.0222 7.2426 65.4362C7.14023 64.6176 6.67958 63.9525 6.32129 63.6199L5.0673 63.7478L5.32321 66.1268L4.09481 66.2548L3.68534 62.4688L6.67958 62.1362C7.65207 62.8269 8.34305 63.8757 8.4966 65.2827C8.75252 67.585 7.31938 69.657 4.81138 69.9384C2.30338 70.2198 0.46077 68.5059 0.204852 66.2036H0.230443Z" fill="#E5E7EB"/>
<path d="M8.06142 60.5757L0 60.3199L0.0511836 58.9129L6.85861 59.1432L6.96097 55.5874L8.21497 55.6386L8.06142 60.6013V60.5757Z" fill="#E5E7EB"/>
<path d="M0.793159 49.6271C1.20263 47.2481 3.24997 45.8667 5.60442 46.276C7.98446 46.6853 9.4176 48.6806 9.00813 51.0596C8.59866 53.4386 6.55132 54.82 4.19687 54.4107C1.81683 54.0014 0.38369 52.0061 0.793159 49.6271ZM2.02157 49.8573C1.74006 51.4689 2.78932 52.6968 4.4272 52.9782C6.06507 53.2596 7.47262 52.441 7.75413 50.855C8.03564 49.2689 6.98638 48.0155 5.3485 47.7341C3.71063 47.4527 2.30308 48.2713 2.02157 49.8573Z" fill="#E5E7EB"/>
<path d="M9.98065 45.7644L2.37988 43.104L3.68507 39.3692C4.17131 37.9878 5.29735 37.5018 6.37221 37.8855C7.34469 38.218 7.75416 39.0622 7.6518 39.804C8.06126 39.0366 9.11053 38.6529 10.0318 38.9855C11.2091 39.3948 11.8233 40.4947 11.3114 41.9017L9.95506 45.7388L9.98065 45.7644ZM5.98833 42.8738L6.73049 40.7505C6.96082 40.0599 6.7049 39.5227 6.11629 39.3436C5.55327 39.1389 4.99025 39.3948 4.75992 40.0599L4.01776 42.1831L5.98833 42.8738ZM9.26408 44.0249L10.0318 41.8249C10.2878 41.0831 10.0318 40.5203 9.36645 40.2901C8.80343 40.0854 8.18922 40.3157 7.90771 41.0831L7.13996 43.283L9.23849 44.0249H9.26408Z" fill="#E5E7EB"/>
<path d="M15.3547 33.3829L13.7169 33.1783L11.9254 36.555L13.0003 37.8084L12.2581 39.1642L6.62793 32.5643L7.47246 31.0039L16.0713 32.0016L15.3291 33.3573L15.3547 33.3829ZM8.11226 32.3597L10.9785 35.6085L12.4117 32.9481L8.11226 32.3597Z" fill="#E5E7EB"/>
<path d="M16.6087 31.3878L10.1084 26.6809L10.9273 25.5298L16.4296 29.5204L18.5025 26.6553L19.5006 27.3716L16.6087 31.3878Z" fill="#E5E7EB"/>
<path d="M21.139 22.2298C21.9579 22.281 22.9304 22.0508 23.7493 21.2833C24.5938 20.4903 24.5427 19.7741 24.1844 19.3648C23.6981 18.8276 22.9048 19.2624 22.0347 19.7485C20.8574 20.4136 19.4755 21.181 18.2983 19.9531C17.377 18.981 17.5305 17.4462 18.8101 16.2183C19.7314 15.3486 20.7295 14.9648 21.7787 14.9648L21.9067 16.2951C21.011 16.2695 20.1921 16.6532 19.5779 17.216C18.9636 17.7787 18.8613 18.4438 19.2707 18.8787C19.7058 19.3392 20.448 18.9299 21.2925 18.4438C22.4953 17.7787 23.9285 16.9857 25.1313 18.2648C26.0526 19.2369 26.1549 20.7205 24.5683 22.2042C23.4934 23.2275 22.3418 23.5856 21.3181 23.5089L21.139 22.1787V22.2298Z" fill="#E5E7EB"/>
<path d="M32.297 16.0135L30.9406 15.0926L27.8184 17.267L28.2279 18.8786L26.9739 19.7739L24.9521 11.3834L26.3853 10.3857L33.5766 15.1694L32.3226 16.0647L32.297 16.0135ZM26.3341 11.8439L27.4346 16.0391L29.8914 14.2996L26.3341 11.8439Z" fill="#E5E7EB"/>
<path d="M34.3702 14.7858L30.7617 7.59756L35.6753 5.11621L36.2384 6.21619L32.5787 8.05801L33.5256 9.92542L37.1085 8.10918L37.6715 9.20915L34.0887 11.0254L35.0867 13.0207L38.7464 11.1789L39.3094 12.2789L34.3958 14.7602L34.3702 14.7858Z" fill="#E5E7EB"/>
<path d="M40.6909 10.1303C41.126 9.97678 41.6122 10.1814 41.7914 10.6163C41.9449 11.0512 41.7402 11.5372 41.3051 11.7163C40.8701 11.8953 40.3838 11.6651 40.2047 11.2302C40.0255 10.7954 40.2559 10.3093 40.6909 10.1303Z" fill="#E5E7EB"/>
<path d="M48.9823 9.20891L48.0098 7.8787L44.3246 8.87635L44.1455 10.5135L42.6611 10.9228L43.6336 2.32764L45.3483 1.86719L50.4922 8.82519L49.0079 9.23449L48.9823 9.20891ZM44.7853 3.22298L44.3758 7.54615L47.2932 6.75314L44.7853 3.22298Z" fill="#E5E7EB"/>
<path fill-rule="evenodd" clip-rule="evenodd" d="M79.0384 60.161C79.0384 60.161 77.9293 59.0073 75.9225 57.4244C74.2853 56.1098 71.8296 54.4732 69.0834 52.783C69.0834 52.783 66.6277 51.2 66.7861 49.5903C66.9446 48.061 68.3969 47.5781 70.6678 47.7659C70.6678 47.7659 75.8697 47.7659 83.8442 53.2927V37.7318C83.8442 37.7318 72.7802 33.0904 61.9803 35.9074C61.9803 35.9074 52.2103 37.8391 51.6557 46.3976C51.6557 46.3976 50.9956 50.1269 54.0586 54.1244C55.3525 55.8147 56.4351 56.9146 60.1055 59.222C60.1055 59.222 63.8023 61.6366 64.8321 62.6829C64.8321 62.6829 69.4795 66.0902 69.7436 71.8316C69.77 72.717 69.7964 73.7365 69.5851 74.7292C69.3475 75.9633 68.8458 77.5462 67.8688 79.0219C67.8688 79.0219 66.7069 81.3023 63.5911 83.0999C63.5911 83.0999 78.3518 86.7486 83.0784 76.2048C83.0784 76.2048 86.8808 68.3975 79.0384 60.161Z" fill="#E5E7EB"/>
<path fill-rule="evenodd" clip-rule="evenodd" d="M40.988 59.8122C40.988 59.8122 42.0971 60.9658 44.1039 62.5488C45.7411 63.8634 48.1704 65.5 50.9166 67.1902C50.9166 67.1902 53.3723 68.8 53.2138 70.4097C53.0554 71.939 51.6031 72.4219 49.3322 72.2341C49.3322 72.2341 44.1303 72.2341 36.1558 66.7073V82.2682C36.1558 82.2682 47.2198 86.9096 58.0197 84.0926C58.0197 84.0926 67.7897 82.1609 68.3443 73.5755C68.3443 73.5755 69.0044 69.8463 65.9414 65.8487C64.6475 64.1585 63.5648 63.0585 59.8945 60.7512C59.8945 60.7512 56.1977 58.3366 55.1679 57.2903C55.1679 57.2903 50.5205 53.9098 50.2564 48.1415C50.23 47.2562 50.2036 46.2367 50.4148 45.244C50.6525 44.0367 51.1278 42.4269 52.1312 40.9513C52.1312 40.9513 53.2931 38.6708 56.4089 36.8733C56.4089 36.8733 41.6482 33.2514 36.9216 43.7684C36.9216 43.7684 33.1192 51.5757 40.9616 59.8122H40.988Z" fill="#E5E7EB"/>
</g>
<defs>
<clipPath id="clip0_2009_3920">
<rect width="120" height="120" fill="white"/>
</clipPath>
</defs>
</svg>
