<svg width="97" height="28" viewBox="0 0 97 28" fill="none" xmlns="http://www.w3.org/2000/svg">
<g clip-path="url(#clip0_1_1808)">
<path fill-rule="evenodd" clip-rule="evenodd" d="M18.7522 17.4437C18.7522 17.4437 18.2816 16.9535 17.43 16.2809C16.7353 15.7222 15.6933 15.0268 14.528 14.3086C14.528 14.3086 13.486 13.6359 13.5532 12.9519C13.6204 12.302 14.2367 12.0968 15.2003 12.1766C15.2003 12.1766 17.4076 12.1766 20.7914 14.5252V7.9128C20.7914 7.9128 16.0967 5.94049 11.514 7.13756C11.514 7.13756 7.36828 7.9584 7.13298 11.5952C7.13298 11.5952 6.85286 13.1799 8.1526 14.8786C8.70162 15.5968 9.16101 16.0643 10.7185 17.0447C10.7185 17.0447 12.2871 18.0708 12.7241 18.5154C12.7241 18.5154 14.6961 19.9633 14.8081 22.403C14.8193 22.7792 14.8305 23.2125 14.7409 23.6343C14.6401 24.1587 14.4272 24.8314 14.0126 25.4584C14.0126 25.4584 13.5196 26.4275 12.1975 27.1913C12.1975 27.1913 18.4608 28.7418 20.4665 24.2613C20.4665 24.2613 22.0799 20.9437 18.7522 17.4437Z" fill="#ED193A"/>
<path fill-rule="evenodd" clip-rule="evenodd" d="M2.6064 17.2955C2.6064 17.2955 3.07699 17.7858 3.92854 18.4584C4.62322 19.017 5.65405 19.7125 6.81933 20.4307C6.81933 20.4307 7.86135 21.1148 7.79413 21.7988C7.7269 22.4486 7.11065 22.6538 6.14705 22.574C6.14705 22.574 3.93974 22.574 0.555954 20.2255V26.8379C0.555954 26.8379 5.25068 28.8102 9.83337 27.6131C9.83337 27.6131 13.9791 26.7923 14.2144 23.1441C14.2144 23.1441 14.4945 21.5594 13.1947 19.8607C12.6457 19.1424 12.1863 18.675 10.6289 17.6946C10.6289 17.6946 9.06025 16.6685 8.62327 16.2239C8.62327 16.2239 6.65126 14.7874 6.53921 12.3363C6.52801 11.96 6.5168 11.5268 6.60644 11.105C6.70728 10.592 6.90896 9.90791 7.33474 9.28088C7.33474 9.28088 7.82774 8.31182 9.14988 7.54798C9.14988 7.54798 2.88651 6.00889 0.880888 10.4779C0.880888 10.4779 -0.732575 13.7955 2.59519 17.2955H2.6064Z" fill="#94948B"/>
<path fill-rule="evenodd" clip-rule="evenodd" d="M57.1839 16.0985H60.5453V18.0822H44.265V16.0985H47.6152V14.7646C46.181 14.3314 45.2847 13.579 45.2847 12.3705C45.2959 10.0904 48.4668 9.42912 52.3996 9.42912C56.3324 9.42912 59.5145 10.2614 59.5145 12.3705C59.5145 13.4878 58.6181 14.2402 57.1839 14.7076V16.0985ZM56.6349 12.3591C56.6349 11.4812 54.7413 11.1962 52.3996 11.1962C50.0578 11.1962 48.1642 11.4356 48.1642 12.3591C48.1642 13.2825 50.0578 13.522 52.3996 13.522C54.7413 13.522 56.6349 13.2369 56.6349 12.3591ZM52.3996 15.3005C51.6825 15.3005 50.999 15.2777 50.3491 15.2321V16.0871H54.4724V15.2093C53.8114 15.2663 53.1167 15.3005 52.3996 15.3005Z" fill="black"/>
<path d="M78.4055 20.6473H75.6715V16.1441H72.5566V13.9552H75.6715V10.0105H78.4055V20.6473Z" fill="black"/>
<path d="M72.6127 12.1995L66.4053 18.333H62.9879L68.9264 12.2907H63.5706V10.1017H72.6127V12.1995Z" fill="black"/>
<path d="M64.3549 20.0545V24.877H78.4391V22.7793H66.8087V20.0545H64.3549Z" fill="black"/>
<path fill-rule="evenodd" clip-rule="evenodd" d="M26.7746 22.1865C26.7746 19.6556 29.8783 18.5155 33.7103 18.5155C37.5423 18.5155 40.8364 19.3364 40.8364 21.9699C40.8364 24.6035 37.2285 25.6409 33.9008 25.6409C30.0688 25.6409 26.7746 24.7175 26.7746 22.1865ZM29.9007 22.0839C29.9007 23.2354 31.6486 23.8282 33.8111 23.8282C35.9624 23.8282 37.7103 23.3494 37.7103 22.0839C37.7103 20.8185 35.9736 20.3396 33.8111 20.3396C31.6486 20.3396 29.9007 20.9325 29.9007 22.0839Z" fill="black"/>
<path fill-rule="evenodd" clip-rule="evenodd" d="M45.0045 22.1181C45.0045 24.649 48.3323 25.6409 52.4444 25.6409C56.5565 25.6409 59.8842 24.535 59.8842 22.1181C59.8842 19.7011 56.5565 18.5839 52.4444 18.5839C48.3323 18.5839 45.0045 19.5871 45.0045 22.1181ZM56.8366 22.1181C56.8366 23.395 54.8646 23.8282 52.4332 23.8282C50.0018 23.8282 48.0298 23.395 48.0298 22.1181C48.0298 20.8412 50.0018 20.3966 52.4332 20.3966C54.8646 20.3966 56.8366 20.8412 56.8366 22.1181Z" fill="black"/>
<path d="M42.4835 12.8037H40.3882L40.3658 10.193H37.4975L37.5199 16.3265L35.2117 10.3868H32.6347L31.5814 13.1799L30.4273 10.3982H27.8615L25.0155 17.7972H27.5814L29.1948 13.6017L30.3601 16.3949H30.3713L29.9231 17.592H32.4778L33.9456 13.7158L35.5254 17.7858H37.5199V18.1164H40.3882V14.8786H42.4835V12.8037Z" fill="black"/>
<path d="M89.2515 16.7597L86.3607 12.2564L83.6828 16.7141H80.7584L84.6464 10.1359H88.1647L92.1871 16.7597H89.2515Z" fill="black"/>
<path d="M96.6466 17.1702V9.99921H93.9574V11.8005H91.5933V13.7386H93.9574V17.1702H96.6466Z" fill="black"/>
<path d="M82.9769 24.8884V20.7614H93.5093V19.7695H82.9769V18.162H96.6578V22.3119H86.103V23.2923H96.6578V24.8884H82.9769Z" fill="black"/>
<path d="M28.9145 0C29.5979 0 30.058 0.15932 30.4613 0.444336C30.5622 0.524148 30.6737 0.672743 30.6625 0.87793C30.6513 1.1515 30.405 1.36783 30.1361 1.35645C30.013 1.35645 29.9236 1.29949 29.8676 1.25391C29.5987 1.0601 29.3065 0.93457 28.8695 0.93457C28.1415 0.93484 27.5708 1.58472 27.5707 2.37109C27.5707 3.22614 28.1419 3.85352 28.9486 3.85352C29.3071 3.85348 29.6324 3.76245 29.89 3.58008V2.91895H29.2289C29.0048 2.91895 28.8031 2.74754 28.7807 2.51953C28.7583 2.25736 28.9596 2.04109 29.2172 2.04102H30.2934C30.6069 2.04123 30.8646 2.30302 30.8647 2.62207V3.6709C30.8647 3.96732 30.7523 4.17308 30.517 4.32129C30.1473 4.54924 29.6094 4.78805 28.9262 4.78809C27.5144 4.78809 26.5395 3.77335 26.5395 2.40527H26.5287C26.5289 1.08303 27.5366 0.000183788 28.9145 0ZM37.1498 0C38.5504 0 39.559 1.06034 39.559 2.38281C39.559 3.70523 38.5396 4.78804 37.1391 4.78809C35.7385 4.78809 34.7299 3.72775 34.7299 2.40527C34.73 1.08303 35.7495 0.000191265 37.1498 0ZM76.3324 0C77.0156 0 77.4751 0.159522 77.8783 0.444336C77.9792 0.52414 78.0917 0.672718 78.0805 0.87793C78.0692 1.15143 77.8229 1.36772 77.5541 1.35645C77.4309 1.35645 77.3406 1.29951 77.2846 1.25391C77.0158 1.06023 76.7243 0.93457 76.2875 0.93457C75.5594 0.934719 74.9878 1.58465 74.9877 2.37109C74.9877 3.22614 75.5599 3.85352 76.3666 3.85352C76.7248 3.85344 77.0495 3.76225 77.307 3.58008V2.91895H76.6459C76.422 2.91874 76.2201 2.74741 76.1977 2.51953C76.1753 2.25734 76.3775 2.04102 76.6352 2.04102H77.7104C78.0241 2.04102 78.2826 2.30289 78.2826 2.62207V3.6709C78.2826 3.96732 78.1703 4.17308 77.935 4.32129C77.5653 4.54924 77.0274 4.788 76.3441 4.78809C74.9324 4.78809 73.9574 3.77335 73.9574 2.40527H73.9457C73.9458 1.08297 74.9544 7.75108e-05 76.3324 0ZM85.4975 0C86.898 0 87.9066 1.06034 87.9066 2.38281C87.9066 3.70523 86.8872 4.78804 85.4867 4.78809C84.0862 4.78809 83.0775 3.72775 83.0775 2.40527C83.0777 1.08304 84.0972 0.000193468 85.4975 0ZM91.8617 0.0341797C92.1417 0.0341797 92.3664 0.262015 92.3666 0.546875V2.69043C92.3666 4.09271 91.5928 4.77637 90.3715 4.77637C89.1504 4.7762 88.3998 4.08113 88.3998 2.72461V0.546875C88.4 0.262152 88.6239 0.0343993 88.9037 0.0341797C89.1837 0.0341797 89.4084 0.262015 89.4086 0.546875V2.69043C89.4086 3.44287 89.7782 3.83105 90.3832 3.83105C90.9882 3.83102 91.3578 3.45422 91.3578 2.72461V0.546875C91.358 0.262154 91.5819 0.0344027 91.8617 0.0341797ZM55.9184 0.0117188C56.4672 0.0117953 56.9492 0.159728 57.3637 0.421875C57.4755 0.490286 57.5871 0.626922 57.5873 0.820312C57.5873 1.08253 57.3743 1.28809 57.1166 1.28809C57.0159 1.28805 56.9372 1.2653 56.8588 1.21973C56.5228 1.02601 56.2203 0.912109 55.9066 0.912109C55.526 0.912138 55.3239 1.09415 55.3236 1.31055C55.3236 1.62977 55.5149 1.73295 56.2992 1.92676C57.2177 2.16615 57.7445 2.50813 57.7445 3.31738C57.7445 4.25224 57.0606 4.76562 56.0746 4.76562C55.4808 4.76559 54.8756 4.58321 54.3715 4.20703L54.3607 4.21777C54.2487 4.13797 54.1703 3.98968 54.1703 3.83008C54.1706 3.56809 54.3835 3.36328 54.641 3.36328C54.775 3.36337 54.8643 3.40864 54.9203 3.4541C55.2677 3.71632 55.6381 3.86523 56.0863 3.86523C56.4895 3.86515 56.7474 3.70511 56.7475 3.43164C56.7475 3.15804 56.5903 3.03233 55.8285 2.82715C54.9099 2.58777 54.3268 2.33714 54.3266 1.41406C54.3266 0.559014 54.9884 0.0117188 55.9184 0.0117188ZM80.9828 0.0800781C81.5653 0.0801317 82.0138 0.239109 82.3051 0.546875C82.5627 0.809081 82.6967 1.16285 82.6967 1.60742C82.6967 2.34832 82.3383 2.79279 81.7895 3.03223L82.4838 3.8877C82.5846 4.01308 82.641 4.1158 82.641 4.27539C82.6409 4.56021 82.4055 4.74213 82.1703 4.74219C81.9463 4.74219 81.7892 4.62865 81.6772 4.48047L80.7025 3.22656H79.9066V4.21777C79.9066 4.50279 79.6711 4.75391 79.391 4.75391C79.1224 4.75365 78.9097 4.52593 78.9096 4.24121V0.832031C78.9096 0.421768 79.2457 0.0802707 79.6488 0.0800781H80.9828ZM46.517 0.0117188C46.7859 0.0117188 46.988 0.15939 47.1 0.410156L48.6801 4.04688C48.7136 4.11514 48.7357 4.18369 48.7357 4.25195C48.7357 4.52557 48.5228 4.74219 48.265 4.74219C48.0299 4.74218 47.8733 4.60595 47.7836 4.38965L47.4809 3.65918H45.4867L45.1723 4.42383C45.0826 4.61733 44.9148 4.74215 44.7133 4.74219C44.4556 4.74219 44.2543 4.52589 44.2543 4.26367C44.2543 4.19529 44.2764 4.11525 44.31 4.04688H44.2982L45.8783 0.410156C45.9904 0.159405 46.1925 0.0117188 46.4613 0.0117188H46.517ZM60.2094 0.0117188C60.4781 0.0118078 60.6794 0.159598 60.7914 0.410156L62.3715 4.04688C62.405 4.11514 62.428 4.18369 62.4281 4.25195C62.4281 4.52544 62.215 4.74198 61.9574 4.74219C61.7222 4.74219 61.5647 4.60608 61.475 4.38965L61.1723 3.65918H59.1781L58.8647 4.42383C58.775 4.61729 58.607 4.74199 58.4057 4.74219C58.148 4.74219 57.9457 4.52589 57.9457 4.26367C57.9457 4.19529 57.9678 4.11525 58.0014 4.04688H57.9906L59.5707 0.410156C59.6827 0.15961 59.8841 0.0118569 60.1527 0.0117188H60.2094ZM69.9906 0.0117188C70.2595 0.0117188 70.4616 0.15939 70.5736 0.410156L72.1537 4.04688C72.1873 4.11514 72.2093 4.18369 72.2094 4.25195C72.2094 4.52557 71.9964 4.74219 71.7387 4.74219C71.5036 4.74218 71.3469 4.60595 71.2572 4.38965L70.9545 3.65918H68.9604L68.6459 4.42383C68.5562 4.61733 68.3884 4.74215 68.1869 4.74219C67.9292 4.74219 67.7279 4.52589 67.7279 4.26367C67.728 4.19529 67.75 4.11525 67.7836 4.04688H67.7719L69.352 0.410156C69.464 0.159405 69.6661 0.0117188 69.935 0.0117188H69.9906ZM94.9213 0.0800781C96.008 0.0801948 96.6576 0.729612 96.6576 1.67578C96.6576 2.75884 95.8393 3.31738 94.8197 3.31738H94.058V4.20703C94.0578 4.49192 93.8224 4.74219 93.5424 4.74219C93.2737 4.74193 93.0609 4.51435 93.0609 4.22949V0.832031C93.061 0.421768 93.397 0.0802707 93.8002 0.0800781H94.9213ZM42.226 0.0800781C42.7414 0.0800931 43.1558 0.228033 43.4135 0.490234C43.6263 0.706757 43.7269 0.957339 43.727 1.27637C43.727 1.8122 43.4581 2.0972 43.1332 2.29102C43.6598 2.49623 43.9848 2.8046 43.9848 3.43164C43.9847 4.28658 43.3124 4.70801 42.2816 4.70801H40.8588C40.4555 4.70792 40.1196 4.36636 40.1195 3.95605V0.832031C40.1196 0.421702 40.4555 0.080161 40.8588 0.0800781H42.226ZM31.9848 0.0341797C32.2649 0.0342159 32.5004 0.273918 32.5004 0.570312V3.77344H34.3266C34.5841 3.77349 34.8082 3.98998 34.7973 4.25195C34.7973 4.50277 34.595 4.69727 34.3373 4.69727H32.2309C31.8277 4.69707 31.4916 4.35464 31.4916 3.94434V0.546875H31.5033C31.5035 0.273408 31.716 0.0455757 31.9848 0.0341797ZM49.6098 0.0341797C49.8899 0.0342136 50.1254 0.273917 50.1254 0.570312V3.77344H51.9516C52.2091 3.77349 52.4332 3.98998 52.4223 4.25195C52.4223 4.50277 52.22 4.69727 51.9623 4.69727H49.8559C49.4415 4.69708 49.1166 4.35465 49.1166 3.94434V0.546875H49.1283C49.1285 0.273408 49.341 0.0455757 49.6098 0.0341797ZM65.9008 0.0800781C66.1361 0.0800781 66.3491 0.250821 66.3715 0.490234C66.3938 0.763803 66.1809 0.980469 65.9232 0.980469H63.8959V1.91504H65.6098C65.8449 1.91504 66.0579 2.086 66.0805 2.3252C66.1029 2.59881 65.8899 2.81543 65.6322 2.81543H63.8959V3.78516H65.935C66.1702 3.78524 66.3833 3.95596 66.4057 4.19531C66.4281 4.46884 66.215 4.68542 65.9574 4.68555H63.6488C63.2345 4.68542 62.9098 4.34373 62.9096 3.93359L62.8988 3.94434V0.832031C62.8989 0.421652 63.2348 0.0800781 63.6381 0.0800781H65.9008ZM37.1391 0.93457C36.3324 0.93457 35.772 1.58456 35.7719 2.37109C35.7719 3.18042 36.3433 3.84159 37.1498 3.8418C37.9565 3.8418 38.517 3.19192 38.517 2.40527C38.5169 1.59598 37.9457 0.934619 37.1391 0.93457ZM85.4867 0.93457C84.6801 0.93457 84.1197 1.58456 84.1195 2.37109C84.1195 3.18041 84.6909 3.84159 85.4975 3.8418C86.3042 3.8418 86.8647 3.19192 86.8647 2.40527C86.8645 1.59598 86.2933 0.934619 85.4867 0.93457ZM41.0941 3.80762H42.2816C42.7186 3.80762 42.9877 3.64768 42.9877 3.30566C42.9875 2.98672 42.7635 2.793 42.2484 2.79297H41.0941V3.80762ZM67.2572 1.87012C67.5483 1.87032 67.7611 2.09794 67.7611 2.38281C67.7611 2.6791 67.5484 2.90703 67.2572 2.90723C66.966 2.90723 66.7525 2.67942 66.7523 2.39453C66.7523 2.09811 66.9659 1.87012 67.2572 1.87012ZM45.8559 2.77051H47.1107L46.4838 1.24219L45.8559 2.77051ZM59.5482 2.77051H60.8031L60.1752 1.24219L59.5482 2.77051ZM69.3295 2.77051H70.5844L69.9574 1.24219L69.3295 2.77051ZM23.1 2.09766V2.67969H0.556061V2.09766H23.1ZM94.0697 2.40527H94.8539C95.358 2.40522 95.6488 2.09755 95.6488 1.70996C95.6488 1.24255 95.3352 0.992188 94.8422 0.992188H94.0697V2.40527ZM79.9066 2.3252H80.9262C81.408 2.3252 81.6889 2.0634 81.6889 1.67578C81.6889 1.23116 81.3855 1.00293 80.9037 1.00293H79.9066V2.3252ZM41.0941 1.94922H42.0238C42.4608 1.94922 42.7416 1.801 42.7416 1.45898C42.7415 1.13994 42.506 0.968812 42.0805 0.96875H41.0941V1.94922Z" fill="#808284"/>
</g>
<defs>
<clipPath id="clip0_1_1808">
<rect width="96" height="28" fill="white" transform="translate(0.5)"/>
</clipPath>
</defs>
</svg>
